:version 1.10
:name ASF
:units
  mass 1
  length 1
  angle deg
:documentation
  ASF file generated by Kaydara
:root
  axis xyz
  order  tx ty tz rx ry rz
  position 0 0 0
  orientation 0 0 0
:bonedata
  begin
    id 1
    name RightUpLegDummy
    direction -1 2.30186e-007 8.31532e-007
    length 4.04083
    axis 0 0 0 xyz
  end
  begin
    id 2
    name RightUpLeg
    direction -0.000919234 -0.999985 0.00544864
    length 17.4221
    axis -3.80308 -0.00076134 -0.0523649 xyz
    dof rx ry rz
  end
  begin
    id 3
    name RightLeg
    direction -0.000919271 -0.999984 -0.00555045
    length 17.1239
    axis 4.00314 0.0181274 -0.183583 xyz
    dof rx ry rz
  end
  begin
    id 4
    name RightFoot
    direction -2.57843e-005 -4.04509e-007 1
    length 6.72091
    axis 8.18909e-005 -0.122003 -0.403008 xyz
    dof rx ry rz
  end
  begin
    id 5
    name RightToes
    direction 0.00116825 -0.014069 0.9999
    length 3.85082
    axis 0.000514414 0.540638 -0.356797 xyz
    dof rx ry rz
  end
  begin
    id 6
    name SpineDummy
    direction 0.0168869 0.966876 -0.254689
    length 6.99894
    axis 0 0 0 xyz
  end
  begin
    id 7
    name Spine
    direction -0.0132008 0.999903 0.00446247
    length 11.1999
    axis -0.00148109 0.00725429 0.756411 xyz
    dof rx ry rz
  end
  begin
    id 8
    name Spine1
    direction 0 0 0
    length 0
    axis -0.000934958 0.0245693 1.46543 xyz
    dof rx ry rz
  end
  begin
    id 9
    name HEadDummy
    direction -0.0255732 0.999672 0.00128215
    length 3.43865
    axis -0.000934958 0.0245693 1.46543 xyz
  end
  begin
    id 10
    name HEad
    direction -0.0472656 0.980052 0.19304
    length 5.12695
    axis -0.000934954 0.0245693 1.46543 xyz
    dof rx ry rz
  end
  begin
    id 11
    name LeftShoulder1Dummy
    direction 0.953098 0.301717 -0.023914
    length 3.68488
    axis -0.000934958 0.0245693 1.46543 xyz
  end
  begin
    id 12
    name LeftShoulder1
    direction 0.962466 0.271167 0.0112566
    length 3.13809
    axis -0.000934958 0.0245693 1.46543 xyz
    dof rx ry rz
  end
  begin
    id 13
    name LeftArm
    direction 0.999943 0.00455037 -0.00961766
    length 11.3419
    axis -23.1648 0.685459 1.22814 xyz
    dof rx ry rz
  end
  begin
    id 14
    name LeftForeArm
    direction 0.999332 0.0131969 0.0340885
    length 8.70632
    axis -9.90633 0.618216 0.0826942 xyz
    dof rx ry rz
  end
  begin
    id 15
    name LeftHand
    direction 0.994373 -0.0366703 0.0993905
    length 5.32135
    axis 0.00675269 0.680415 0.445699 xyz
    dof rx ry rz
  end
  begin
    id 16
    name RightShoulderDummy
    direction -0.967298 0.252589 -0.0230903
    length 3.68488
    axis -0.000934958 0.0245693 1.46543 xyz
  end
  begin
    id 17
    name RightShoulder
    direction -0.975062 0.221602 0.0120823
    length 3.13809
    axis 0.216257 0.0246515 1.45863 xyz
    dof rx ry rz
  end
  begin
    id 18
    name RightArm
    direction -0.99886 -0.00851186 -0.0469687
    length 10.3947
    axis -23.196 0.23503 -0.532632 xyz
    dof rx ry rz
  end
  begin
    id 19
    name RightForeArm
    direction -0.99909 0.00114866 0.0426317
    length 8.68355
    axis -9.91764 -0.134943 0.610517 xyz
    dof rx ry rz
  end
  begin
    id 20
    name RightHand
    direction -0.992888 -0.0489538 0.10852
    length 5.28593
    axis -0.00275396 -0.197403 0.246414 xyz
    dof rx ry rz
  end
  begin
    id 21
    name LeftUpLegDummy
    direction 1 -2.30186e-007 -8.31532e-007
    length 4.04083
    axis 0 0 0 xyz
  end
  begin
    id 22
    name LeftUpLeg
    direction -0.000920097 -1 2.79241e-006
    length 17.4221
    axis -3.48782 0.00143434 -0.0532288 xyz
    dof rx ry rz
  end
  begin
    id 23
    name LeftLeg
    direction -0.000920097 -1 2.7912e-006
    length 17.1239
    axis 3.68162 -0.00806512 -0.0529896 xyz
    dof rx ry rz
  end
  begin
    id 24
    name LeftFoot
    direction -2.57845e-005 -3.987e-007 1
    length 6.72091
    axis 3.02372e-005 -0.00147829 -0.214229 xyz
    dof rx ry rz
  end
  begin
    id 25
    name LeftToes
    direction 0.00813577 -0.00488255 0.999955
    length 3.85048
    axis 3.89895e-005 -0.0014783 -0.214229 xyz
    dof rx ry rz
  end
:hierarchy
  begin
    root RightUpLegDummy SpineDummy LeftUpLegDummy
    RightUpLegDummy RightUpLeg
    RightUpLeg RightLeg
    RightLeg RightFoot
    RightFoot RightToes
    SpineDummy Spine
    Spine Spine1
    Spine1 HEadDummy LeftShoulder1Dummy RightShoulderDummy
    HEadDummy HEad
    LeftShoulder1Dummy LeftShoulder1
    LeftShoulder1 LeftArm
    LeftArm LeftForeArm
    LeftForeArm LeftHand
    RightShoulderDummy RightShoulder
    RightShoulder RightArm
    RightArm RightForeArm
    RightForeArm RightHand
    LeftUpLegDummy LeftUpLeg
    LeftUpLeg LeftLeg
    LeftLeg LeftFoot
    LeftFoot LeftToes
  end

:SAMPLES-PER-SECOND 30
:FULLY-SPECIFIED
:DEGREES
17
root  -44.3087 34.7759 36.0882 -169.236 4.29785 179.63
RightUpLeg  -9.27098 -18.4556 2.85479
RightLeg  5.38045 -2.35357 -0.0726813
RightFoot  2.62843 0.0167105 0.0183216
RightToes  -21.4681 -0.0873622 -0.185173
Spine  -2.79353 -0.287444 0.124722
Spine1  -5.65197 -0.515299 0.886889
HEad  -66.0372 -6.05015 9.26595
LeftShoulder1  -1.94126e-019 -3.10601e-018 -2.51263e-017
LeftArm  -9.97097 24.5225 -82.6155
LeftForeArm  32.9975 -18.3946 -3.0388
LeftHand  -0.512671 -3.39264 7.02636
RightShoulder  -4.96962e-017 0 -2.36833e-017
RightArm  -27.6412 -24.8159 78.3892
RightForeArm  58.6546 13.4961 1.29906
RightHand  -0.394486 -0.446058 -9.26585
LeftUpLeg  -7.78281 1.74625 -0.820517
LeftLeg  5.04548 14.0933 0.331422
LeftFoot  3.42195 -0.0211475 0.998163
LeftToes  -19.8634 1.46665e-006 1.03344e-007
18
root  -44.3105 34.7741 36.0998 -169.221 4.26669 179.613
RightUpLeg  -9.35734 -18.4385 2.84651
RightLeg  5.48579 -2.39257 -0.0678357
RightFoot  2.59514 0.0167905 0.0171776
RightToes  -21.4094 -0.0873622 -0.185173
Spine  -2.79114 -0.299567 0.123967
Spine1  -5.64734 -0.544147 0.881567
HEad  -66.0648 -6.05184 9.29627
LeftShoulder1  -1.94126e-019 -3.10601e-018 -2.51263e-017
LeftArm  -10.607 24.6085 -82.6056
LeftForeArm  33.5383 -17.9413 -2.96692
LeftHand  -0.513699 -3.39155 7.04072
RightShoulder  -4.96962e-017 0 -2.36833e-017
RightArm  -28.0348 -24.8998 78.3118
RightForeArm  59.0151 13.3616 1.31474
RightHand  -0.403777 -0.342072 -9.29927
LeftUpLeg  -7.86455 0.809968 -0.783203
LeftLeg  5.16646 14.9051 0.381253
LeftFoot  3.44615 -0.0248409 1.05557
LeftToes  -19.9621 1.46665e-006 1.03344e-007
19
root  -44.2996 34.774 36.1134 -169.241 4.29297 179.635
RightUpLeg  -9.37418 -18.4327 2.88743
RightLeg  5.5189 -2.36938 -0.0710295
RightFoot  2.57976 0.0168654 0.0161083
RightToes  -21.3912 -0.0873622 -0.185173
Spine  -2.77447 -0.297112 0.120256
Spine1  -5.61335 -0.533604 0.876044
HEad  -66.0433 -6.08368 9.27805
LeftShoulder1  -1.94126e-019 -3.10601e-018 -2.51263e-017
LeftArm  -10.6529 24.6548 -82.4527
LeftForeArm  33.5644 -17.5454 -2.91649
LeftHand  -0.522872 -3.40863 7.14903
RightShoulder  -4.96962e-017 0 -2.36833e-017
RightArm  -28.1056 -24.952 78.2791
RightForeArm  59.0429 13.3215 1.32016
RightHand  -0.397752 -0.410973 -9.28034
LeftUpLeg  -7.87048 1.77955 -0.79712
LeftLeg  5.15798 14.0481 0.357688
LeftFoot  3.38319 -0.0202792 0.984666
LeftToes  -19.826 1.46665e-006 1.03344e-007
20
root  -44.2957 34.7744 36.1293 -169.25 4.31198 179.635
RightUpLeg  -9.41171 -18.4593 2.90111
RightLeg  5.55411 -2.31882 -0.0776867
RightFoot  2.55564 0.0169336 0.0151326
RightToes  -21.258 -0.0873622 -0.185173
Spine  -2.76264 -0.290118 0.107936
Spine1  -5.58957 -0.529479 0.851649
HEad  -65.9518 -6.13235 9.17789
LeftShoulder1  -1.94126e-019 -3.10601e-018 -2.51263e-017
LeftArm  -10.7633 24.7012 -82.3188
LeftForeArm  33.608 -17.1754 -2.86547
LeftHand  -0.524187 -3.3654 7.19893
RightShoulder  -4.96962e-017 0 -2.36833e-017
RightArm  -28.1481 -24.9874 78.2647
RightForeArm  59.1091 13.3381 1.31727
RightHand  -0.398228 -0.343354 -9.29437
LeftUpLeg  -7.8887 1.74905 -0.791383
LeftLeg  5.17297 14.0923 0.362442
LeftFoot  3.37512 -0.0203173 0.985258
LeftToes  -19.7442 1.46665e-006 1.03344e-007
21
root  -44.2966 34.7754 36.1511 -169.257 4.32497 179.613
RightUpLeg  -9.44051 -18.4314 2.88772
RightLeg  5.54791 -2.33927 -0.0745058
RightFoot  2.62037 0.0169941 0.014269
RightToes  -21.3547 -0.0873622 -0.185173
Spine  -2.74761 -0.284086 0.0935473
Spine1  -5.55972 -0.517748 0.822983
HEad  -66.1706 -6.056 9.40692
LeftShoulder1  -1.94126e-019 -3.10601e-018 -2.51263e-017
LeftArm  -10.8353 24.7113 -82.2087
LeftForeArm  33.6235 -16.7784 -2.80554
LeftHand  -0.528925 -3.35841 7.26702
RightShoulder  -4.96962e-017 0 -2.36833e-017
RightArm  -28.0654 -24.9846 78.2605
RightForeArm  59.0272 13.4175 1.3068
RightHand  -0.402078 -0.313687 -9.31174
LeftUpLeg  -7.90856 0.883659 -0.760233
LeftLeg  5.18249 14.8741 0.384593
LeftFoot  3.47288 -0.0251545 1.06045
LeftToes  -19.9496 1.46665e-006 1.03344e-007
22
root  -44.2929 34.7766 36.1706 -169.268 4.38232 179.619
RightUpLeg  -9.46118 -18.3714 2.90256
RightLeg  5.53662 -2.33817 -0.0744025
RightFoot  2.64491 0.0170453 0.0135363
RightToes  -21.3676 -0.0873622 -0.185173
Spine  -2.73881 -0.26998 0.0827542
Spine1  -5.54239 -0.488125 0.801841
HEad  -66.1434 -6.08499 9.41155
LeftShoulder1  -1.94126e-019 -3.10601e-018 -2.51263e-017
LeftArm  -10.9442 24.7769 -82.1003
LeftForeArm  33.6497 -16.5158 -2.76514
LeftHand  -0.530534 -3.3587 7.28812
RightShoulder  -4.96962e-017 0 -2.36833e-017
RightArm  -27.9378 -24.9578 78.2815
RightForeArm  58.8945 13.5129 1.29443
RightHand  -0.408761 -0.283833 -9.27985
LeftUpLeg  -7.91155 0.969604 -0.752647
LeftLeg  5.1618 14.8446 0.378543
LeftFoot  3.49495 -0.0254264 1.06467
LeftToes  -19.9485 1.46665e-006 1.03344e-007
23
root  -44.291 34.7784 36.1861 -169.273 4.41521 179.619
RightUpLeg  -9.47414 -18.3391 2.91023
RightLeg  5.51576 -2.33921 -0.0735852
RightFoot  2.6566 0.0170862 0.0129532
RightToes  -21.2617 -0.0873622 -0.185173
Spine  -2.73389 -0.264915 0.0740123
Spine1  -5.53272 -0.476234 0.785029
HEad  -65.9826 -6.34797 9.27115
LeftShoulder1  -1.94126e-019 -3.10601e-018 -2.51263e-017
LeftArm  -11.065 24.8097 -82.0323
LeftForeArm  33.7627 -16.303 -2.7311
LeftHand  -0.530998 -3.40322 7.33339
RightShoulder  -4.96962e-017 0 -2.36833e-017
RightArm  -27.8549 -24.9084 78.3121
RightForeArm  58.7938 13.583 1.28533
RightHand  -0.414226 -0.279357 -9.26447
LeftUpLeg  -7.91421 0.969446 -0.753257
LeftLeg  5.13248 14.8902 0.372147
LeftFoot  3.53347 -0.026306 1.07835
LeftToes  -20.0396 1.46665e-006 1.03344e-007
24
root  -44.284 34.7792 36.206 -169.288 4.52231 179.653
RightUpLeg  -9.47951 -18.3373 2.9588
RightLeg  5.47426 -2.22808 -0.0684348
RightFoot  2.70624 0.0171152 0.0125384
RightToes  -21.291 -0.0873622 -0.185173
Spine  -2.72601 -0.240069 0.0684296
Spine1  -5.51714 -0.422944 0.775526
HEad  -65.9317 -6.66788 9.15061
LeftShoulder1  -1.94126e-019 -3.10601e-018 -2.51263e-017
LeftArm  -11.1336 24.886 -81.9621
LeftForeArm  33.6936 -16.1955 -2.71269
LeftHand  -0.531054 -3.36531 7.32223
RightShoulder  -4.96962e-017 0 -2.36833e-017
RightArm  -27.6807 -24.8117 78.357
RightForeArm  58.6537 13.6839 1.27213
RightHand  -0.417991 -0.235389 -9.2149
LeftUpLeg  -7.89301 2.07087 -0.775089
LeftLeg  5.05359 13.9882 0.330955
LeftFoot  3.48726 -0.0217952 1.00823
LeftToes  -19.9108 1.46665e-006 1.03344e-007
25
root  -44.2799 34.7842 36.2358 -169.296 4.63788 179.667
RightUpLeg  -9.50066 -18.3051 2.98936
RightLeg  5.40708 -2.15313 -0.063581
RightFoot  2.7916 0.0171311 0.0123106
RightToes  -21.3189 -0.0873622 -0.185173
Spine  -2.72454 -0.211054 0.0532649
Spine1  -5.51456 -0.360648 0.7469
HEad  -65.9013 -7.34345 9.17511
LeftShoulder1  -1.94126e-019 -3.10601e-018 -2.51263e-017
LeftArm  -11.2618 24.9275 -81.9281
LeftForeArm  33.7358 -16.0044 -2.68154
LeftHand  -0.53073 -3.37746 7.34821
RightShoulder  -4.96962e-017 0 -2.36833e-017
RightArm  -27.4726 -24.6755 78.4268
RightForeArm  58.5032 13.7952 1.25742
RightHand  -0.415832 -0.13036 -9.21153
LeftUpLeg  -7.87758 2.36632 -0.772908
LeftLeg  4.96706 13.8257 0.306501
LeftFoot  3.54284 -0.0220551 1.01227
LeftToes  -20.0359 1.46665e-006 1.03344e-007
26
root  -44.2795 34.7956 36.2608 -169.308 4.81169 179.622
RightUpLeg  -9.50664 -18.1257 2.94258
RightLeg  5.32392 -2.16976 -0.060935
RightFoot  2.87535 0.0171327 0.0122884
RightToes  -21.1656 -0.0873622 -0.185173
Spine  -2.71845 -0.165918 0.0321583
Spine1  -5.50306 -0.267127 0.705834
HEad  -66.0576 -8.55295 9.0757
LeftShoulder1  -1.94126e-019 -3.10601e-018 -2.51263e-017
LeftArm  -11.3391 24.8886 -81.9479
LeftForeArm  33.7452 -15.7249 -2.63438
LeftHand  -0.531127 -3.42113 7.34778
RightShoulder  -4.96962e-017 0 -2.36833e-017
RightArm  -27.168 -24.5805 78.5084
RightForeArm  58.1746 14.0172 1.22881
RightHand  -0.403434 -0.245586 -9.12639
LeftUpLeg  -7.80337 1.28237 -0.766107
LeftLeg  4.90251 14.8767 0.312776
LeftFoot  3.5738 -0.0271042 1.09075
LeftToes  -19.5826 1.46665e-006 1.03344e-007
